HIERARCHY
ROOT hips
{
  OFFSET 0 10.6860622 2.3727825e-15
  CHANNELS 6 Xposition Yposition Zposition Yrotation Xrotation Zrotation
  JOINT leftUpperLeg
  {
    OFFSET 0.6642549969 -0.9402397400000004 0
    CHANNELS 3 Yrotation Xrotation Zrotation
    JOINT leftLowerLeg
    {
      OFFSET 0 -3.997221335632195 0
      CHANNELS 3 Yrotation Xrotation Zrotation
      JOINT leftFoot
      {
        OFFSET -0.13777839790000004 -4.6145792000000005 -0.22186036399999998
        CHANNELS 3 Yrotation Xrotation Zrotation
        JOINT leftToes
        {
          OFFSET -0.03777410834999995 -0.9130806927000008 0.85230013
          CHANNELS 3 Yrotation Xrotation Zrotation
          End Site
          {
            OFFSET -0.03777410834999995 -0.9130806927000008 0.85230013
          }
        }
      }
    }
  }
  JOINT rightUpperLeg
  {
    OFFSET -0.6642778626 -0.9402397400000004 0
    CHANNELS 3 Yrotation Xrotation Zrotation
    JOINT rightLowerLeg
    {
      OFFSET 0 -3.997221452859387 0
      CHANNELS 3 Yrotation Xrotation Zrotation
      JOINT rightFoot
      {
        OFFSET 0.1377926176 -4.6145792000000005 -0.22185782299999995
        CHANNELS 3 Yrotation Xrotation Zrotation
        JOINT rightToes
        {
          OFFSET 0.037780746850000047 -0.9130806927000008 0.85230167
          CHANNELS 3 Yrotation Xrotation Zrotation
          End Site
          {
            OFFSET 0.037780746850000047 -0.9130806927000008 0.85230167
          }
        }
      }
    }
  }
  JOINT spine
  {
    OFFSET 0 0.13988381660000015 0
    CHANNELS 3 Yrotation Xrotation Zrotation
    JOINT chest
    {
      OFFSET 0 0.6191039003973773 0
      CHANNELS 3 Yrotation Xrotation Zrotation
      JOINT upperChest
      {
        OFFSET 0 0.9855186130586943 0
        CHANNELS 3 Yrotation Xrotation Zrotation
        JOINT leftShoulder
        {
          OFFSET 0.1807663869 1.5087829790000005 0
          CHANNELS 3 Yrotation Xrotation Zrotation
          JOINT leftUpperArm
          {
            OFFSET 0.5985063006419806 0 0
            CHANNELS 3 Yrotation Xrotation Zrotation
            JOINT leftLowerArm
            {
              OFFSET 2.2993332369501065 0 0
              CHANNELS 3 Yrotation Xrotation Zrotation
              JOINT leftHand
              {
                OFFSET 2.395047042602395 0 0
                CHANNELS 3 Yrotation Xrotation Zrotation
                JOINT leftIndexProximal
                {
                  OFFSET 0.5766295810000004 0.04556643899499946 0.17265095988184
                  CHANNELS 3 Yrotation Xrotation Zrotation
                  JOINT leftIndexIntermediate
                  {
                    OFFSET 0.2957229000000008 -0.019352197700001517 -0.007932640616999987
                    CHANNELS 3 Yrotation Xrotation Zrotation
                    JOINT leftIndexDistal
                    {
                      OFFSET 0.19008243099999922 -0.012484908149998475 -0.002786250786000012
                      CHANNELS 3 Yrotation Xrotation Zrotation
                      End Site
                      {
                        OFFSET 0.19008243099999922 -0.012484908149998475 -0.002786250786000012
                      }
                    }
                  }
                }
                JOINT leftMiddleProximal
                {
                  OFFSET 0.5834975091000001 0.0524350405149987 0.02204081888183999
                  CHANNELS 3 Yrotation Xrotation Zrotation
                  JOINT leftMiddleIntermediate
                  {
                    OFFSET 0.33880573540000003 -0.019871473270000717 -0.00000971183179999946
                    CHANNELS 3 Yrotation Xrotation Zrotation
                    JOINT leftMiddleDistal
                    {
                      OFFSET 0.20676022730000088 -0.012221336379999448 0.0001471936708000235
                      CHANNELS 3 Yrotation Xrotation Zrotation
                      End Site
                      {
                        OFFSET 0.20676022730000088 -0.012221336379999448 0.0001471936708000235
                      }
                    }
                  }
                }
                JOINT leftLittleProximal
                {
                  OFFSET 0.5344154683999995 -0.012880921405001189 -0.24414037221816004
                  CHANNELS 3 Yrotation Xrotation Zrotation
                  JOINT leftLittleIntermediate
                  {
                    OFFSET 0.21758961730000093 -0.011650919939999227 0.011893592810000034
                    CHANNELS 3 Yrotation Xrotation Zrotation
                    JOINT leftLittleDistal
                    {
                      OFFSET 0.1475273964999999 -0.008152365682999818 0.006001092492999946
                      CHANNELS 3 Yrotation Xrotation Zrotation
                      End Site
                      {
                        OFFSET 0.1475273964999999 -0.008152365682999818 0.006001092492999946
                      }
                    }
                  }
                }
                JOINT leftRingProximal
                {
                  OFFSET 0.5799399463000003 0.026911854694997794 -0.12150566991816003
                  CHANNELS 3 Yrotation Xrotation Zrotation
                  JOINT leftRingIntermediate
                  {
                    OFFSET 0.26167887460000006 -0.013480186499999602 0.010996293000000053
                    CHANNELS 3 Yrotation Xrotation Zrotation
                    JOINT leftRingDistal
                    {
                      OFFSET 0.17667108799999987 -0.008990287899999228 0.0055541023999999065
                      CHANNELS 3 Yrotation Xrotation Zrotation
                      End Site
                      {
                        OFFSET 0.17667108799999987 -0.008990287899999228 0.0055541023999999065
                      }
                    }
                  }
                }
                JOINT leftThumbProximal
                {
                  OFFSET 0.11018806699999972 -0.09448718900500053 0.17047963138184
                  CHANNELS 3 Yrotation Xrotation Zrotation
                  JOINT leftThumbIntermediate
                  {
                    OFFSET 0.31062601459999983 -0.08126270900000132 0.15443142000000007
                    CHANNELS 3 Yrotation Xrotation Zrotation
                    JOINT leftThumbDistal
                    {
                      OFFSET 0.21627175790000086 -0.08833193599999878 0.018771167799999988
                      CHANNELS 3 Yrotation Xrotation Zrotation
                      End Site
                      {
                        OFFSET 0.21627175790000086 -0.08833193599999878 0.018771167799999988
                      }
                    }
                  }
                }
              }
            }
          }
        }
        JOINT neck
        {
          OFFSET 0 1.5463305265074576 0
          CHANNELS 3 Yrotation Xrotation Zrotation
          JOINT head
          {
            OFFSET 0 0.8456443600000344 0
            CHANNELS 3 Yrotation Xrotation Zrotation
            JOINT leftEye
            {
              OFFSET 0.30408573140000006 0.5104519199999995 0.1276382305
              CHANNELS 3 Yrotation Xrotation Zrotation
              End Site
              {
                OFFSET 0.30408573140000006 0.5104519199999995 0.1276382305
              }
            }
            JOINT rightEye
            {
              OFFSET -0.30409491089999996 0.5104519199999995 0.1276379445
              CHANNELS 3 Yrotation Xrotation Zrotation
              End Site
              {
                OFFSET -0.30409491089999996 0.5104519199999995 0.1276379445
              }
            }
            JOINT jaw
            {
              OFFSET -3.155239131000001e-7 -0.11984121820000082 0.60178107
              CHANNELS 3 Yrotation Xrotation Zrotation
              End Site
              {
                OFFSET -3.155239131000001e-7 -0.11984121820000082 0.60178107
              }
            }
          }
        }
        JOINT rightShoulder
        {
          OFFSET -0.1807303465 1.5087829790000005 0
          CHANNELS 3 Yrotation Xrotation Zrotation
          JOINT rightUpperArm
          {
            OFFSET -0.5985063796536958 0 0
            CHANNELS 3 Yrotation Xrotation Zrotation
            JOINT rightLowerArm
            {
              OFFSET -2.2993322059002854 0 0
              CHANNELS 3 Yrotation Xrotation Zrotation
              JOINT rightHand
              {
                OFFSET -2.395045314457259 0 0
                CHANNELS 3 Yrotation Xrotation Zrotation
                JOINT rightIndexProximal
                {
                  OFFSET -0.5764487688300002 0.0441371204405987 0.17361932004999997
                  CHANNELS 3 Yrotation Xrotation Zrotation
                  JOINT rightIndexIntermediate
                  {
                    OFFSET -0.29573011380000047 -0.01934826376999843 -0.007698921482999974
                    CHANNELS 3 Yrotation Xrotation Zrotation
                    JOINT rightIndexDistal
                    {
                      OFFSET -0.19008373999999884 -0.012503266380000655 -0.0026365778999999897
                      CHANNELS 3 Yrotation Xrotation Zrotation
                      End Site
                      {
                        OFFSET -0.19008373999999884 -0.012503266380000655 -0.0026365778999999897
                      }
                    }
                  }
                }
                JOINT rightMiddleProximal
                {
                  OFFSET -0.5834852037300005 0.05211639405060153 0.02307162440000001
                  CHANNELS 3 Yrotation Xrotation Zrotation
                  JOINT rightMiddleIntermediate
                  {
                    OFFSET -0.33880114510000003 -0.019952774050000954 0.0002455003561999819
                    CHANNELS 3 Yrotation Xrotation Zrotation
                    JOINT rightMiddleDistal
                    {
                      OFFSET -0.20675694929999955 -0.012273788999999091 0.00030209124000002766
                      CHANNELS 3 Yrotation Xrotation Zrotation
                      End Site
                      {
                        OFFSET -0.20675694929999955 -0.012273788999999091 0.00030209124000002766
                      }
                    }
                  }
                }
                JOINT rightLittleProximal
                {
                  OFFSET -0.5346811737299992 -0.011214256288399227 -0.24363941305000003
                  CHANNELS 3 Yrotation Xrotation Zrotation
                  JOINT rightLittleIntermediate
                  {
                    OFFSET -0.21757715980000092 -0.011771559690000988 0.01201554387
                    CHANNELS 3 Yrotation Xrotation Zrotation
                    JOINT rightLittleDistal
                    {
                      OFFSET -0.1475201849000004 -0.00822055339600003 0.006082065407000015
                      CHANNELS 3 Yrotation Xrotation Zrotation
                      End Site
                      {
                        OFFSET -0.1475201849000004 -0.00822055339600003 0.006082065407000015
                      }
                    }
                  }
                }
                JOINT rightRingProximal
                {
                  OFFSET -0.5800810755299999 0.027657985680600072 -0.12066365025000003
                  CHANNELS 3 Yrotation Xrotation Zrotation
                  JOINT rightRingIntermediate
                  {
                    OFFSET -0.26166445029999974 -0.013623118409999302 0.011164098990000045
                    CHANNELS 3 Yrotation Xrotation Zrotation
                    JOINT rightRingDistal
                    {
                      OFFSET -0.17666387530000027 -0.009072900100000503 0.005668185599999959
                      CHANNELS 3 Yrotation Xrotation Zrotation
                      End Site
                      {
                        OFFSET -0.17666387530000027 -0.009072900100000503 0.005668185599999959
                      }
                    }
                  }
                }
                JOINT rightThumbProximal
                {
                  OFFSET -0.10997596379000074 -0.09577489355940072 0.16989765924999997
                  CHANNELS 3 Yrotation Xrotation Zrotation
                  JOINT rightThumbIntermediate
                  {
                    OFFSET -0.31036620999999986 -0.08229339117999834 0.15440884469999996
                    CHANNELS 3 Yrotation Xrotation Zrotation
                    JOINT rightThumbDistal
                    {
                      OFFSET -0.21631306399999906 -0.08825326400000111 0.018656797720000014
                      CHANNELS 3 Yrotation Xrotation Zrotation
                      End Site
                      {
                        OFFSET -0.21631306399999906 -0.08825326400000111 0.018656797720000014
                      }
                    }
                  }
                }
              }
            }
          }
        }
      }
    }
  }
}
MOTION
Frames: 5
Frame Time: 0.03333333333333333
5.366741260317381 -7.330921250477527 -0.37705249269796975 -179.99613641353562 52.817143919208554 0.0077841612258700375 -177.969256782738 -11.974748497764946 -143.50322911817256 153.3462112583497 73.61032359337356 168.24411658470916 -5.470430072766483 -2.0689800925317 17.3541049572456 0 0 0 177.1356271433402 -13.258589940347294 146.00578969944584 -153.27322829196567 73.62739751301201 -168.21256971363482 3.7029178657947943 -2.0593654851003955 -14.980827279406125 0 0 0 -0.12552534722550968 3.752121729247267 -0.17514465235430643 -1.0028489278678747 35.17023011651311 -1.188302498435439 0 0 0 -65.8236908466873 -1.5927862656912932 9.483227291869188 -5.454919285368855 -3.7824496976850353 0.3315862389192475 -6.028621095731458 -11.908689063116464 0.49465130896098986 -12.494300100185448 -3.0855420940112652 56.50680197619993 0 0 0 0 0 0 0 0 0 0 0 0 0 0 0 0 0 0 0 0 0 0 0 0 0 0 0 0 0 0 0 0 0 0 0 0 0 0 0 0 0 0 0 0 0 0 -41.56755381471111 0 0 -26.877110460606488 0 0 0 0 0 0 0 0 0 0 60.55209366273459 -2.74912840195326 -7.155095384595362 18.957065830742298 -3.4138050657264514 -1.8400085831907746 8.153364156152522 -11.697766207466318 -3.089399831088491 3.782232993333401 -1.2983926283253726 -60.93585864066144 0 0 0 0 0 0 0 0 0 0 0 0 0 0 0 0 0 0 0 0 0 0 0 0 0 0 0 0 0 0 0 0 0 0 0 0 0 0 0 0 0 0 0 0 0
5.366741260317381 -7.319956889410131 -0.38890335343748955 -179.99608220507662 53.14247360763232 0.007833743187491159 -177.8206462029408 -12.0533472789204 -143.91437033316427 153.3462112583497 73.61032359337356 168.24411658470916 -5.166484534309297 -2.2097705543236983 16.857504165010802 0 0 0 177.02708070602358 -13.26294066457522 146.28713683965114 -153.27322829196567 73.62739751301201 -168.21256971363482 3.4877853140508535 -2.187696419949679 -14.60935492587803 0 0 0 -0.1254855458903132 3.4518543132889015 -0.1744657965476031 -1.0065524597078284 35.470494966054254 -1.1947245670681512 0 0 0 -66.36896932161208 -1.5037670643420444 9.727363246024995 -4.670148100380621 -3.8070714440059787 0.2404808588691476 -6.269121403509971 -11.900501149199691 0.5150236247315407 -12.559886503975168 -3.0835093021383817 56.933233256655605 0 0 0 0 0 0 0 0 0 0 0 0 0 0 0 0 0 0 0 0 0 0 0 0 0 0 0 0 0 0 0 0 0 0 0 0 0 0 0 0 0 0 0 0 0 0 -41.61822219145281 0 0 -26.936686951214664 0 0 0 0 0 0 0 0 0 0 59.769270922860734 -2.8711740018814984 -7.157247136339754 19.99597155960042 -3.3732409468080427 -1.9397221280176056 7.9029832388523875 -11.6954374204122 -3.2001973354331317 3.8380003323982113 -1.344889452427277 -61.19029233412693 0 0 0 0 0 0 0 0 0 0 0 0 0 0 0 0 0 0 0 0 0 0 0 0 0 0 0 0 0 0 0 0 0 0 0 0 0 0 0 0 0 0 0 0 0
5.366741260317381 -7.308993065127277 -0.4007539457847381 -179.99605224097422 53.467802113820575 0.007864112935272397 -177.67142868222987 -12.130902820681323 -144.3258134868388 153.3462112583497 73.61032359337356 168.24411658470916 -4.861330759580757 -2.347906002561876 16.360169544994605 0 0 0 176.91851461144324 -13.26676164709309 146.5684890532914 -153.27322829196567 73.62739751301201 -168.21256971363482 3.271819299462743 -2.3146211955827747 -14.237393129243065 0 0 0 -0.12545014485545353 3.15159820383367 -0.173788473071323 -1.0103114152141939 35.77075719050452 -1.2011955988397947 0 0 0 -66.91377657325977 -1.4124406923455852 9.970604721870362 -3.8854669760394347 -3.830442881826622 0.14906110910604028 -6.509605291498733 -11.892228849336172 0.5353587329462198 -12.625458838860448 -3.080988089855193 57.359648581494085 0 0 0 0 0 0 0 0 0 0 0 0 0 0 0 0 0 0 0 0 0 0 0 0 0 0 0 0 0 0 0 0 0 0 0 0 0 0 0 0 0 0 0 0 0 0 -41.668889261257654 0 0 -26.99625469278643 0 0 0 0 0 0 0 0 0 0 58.986523105069054 -2.9932159702351933 -7.1577286909133075 21.034413953686435 -3.330893250473895 -2.038645915088533 7.652605450781767 -11.693577717978124 -3.310999174109498 3.8939711275364575 -1.3911362924476074 -61.44478046976334 0 0 0 0 0 0 0 0 0 0 0 0 0 0 0 0 0 0 0 0 0 0 0 0 0 0 0 0 0 0 0 0 0 0 0 0 0 0 0 0 0 0 0 0 0
5.366741260317381 -7.298028972452151 -0.4126048065242579 -179.9959962949755 53.793099550847096 0.007915546163190413 -177.52161154839536 -12.207387277977816 -144.73754866288124 153.3462112583497 73.61032359337356 168.24411658470916 -4.555007036545058 -2.4833663939017847 15.862131819925432 0 0 0 176.80993232025597 -13.270079178804421 146.84985424607575 -153.27322829196567 73.62739751301201 -168.21256971363482 3.0550327530514076 -2.4401313085364897 -13.8649573676985 0 0 0 -0.1254182807675825 2.8513509185059593 -0.1731105307800571 -1.0141265669007982 36.07100392783313 -1.2077140849039727 0 0 0 -67.45809396387997 -1.3188210757689296 10.212919116397108 -3.1009460624481675 -3.852557067262007 0.05735290532473425 -6.750075092076912 -11.883874788473248 0.555657766148389 -12.69099650748956 -3.0779818806568056 57.786006504546584 0 0 0 0 0 0 0 0 0 0 0 0 0 0 0 0 0 0 0 0 0 0 0 0 0 0 0 0 0 0 0 0 0 0 0 0 0 0 0 0 0 0 0 0 0 0 -41.719550485354105 0 0 -27.0558233227527 0 0 0 0 0 0 0 0 0 0 58.20391525323164 -3.1152174517522657 -7.1565433258561235 22.07222647209125 -3.286784419840254 -2.1367318818433816 7.40223594541463 -11.692194065623022 -3.4218039170458905 3.950147238814954 -1.4371333775730126 -61.69930392801179 0 0 0 0 0 0 0 0 0 0 0 0 0 0 0 0 0 0 0 0 0 0 0 0 0 0 0 0 0 0 0 0 0 0 0 0 0 0 0 0 0 0 0 0 0
5.366741260317381 -7.287065148169298 -0.4244556672637777 -179.99593934582862 54.1183816271007 0.007969062597306373 -177.37121026698202 -12.282804230697487 -145.14957426922294 153.3462112583497 73.61032359337356 168.24411658470916 -4.2475492164007065 -2.6161316009281665 15.363435610257305 0 0 0 176.70133775017746 -13.272859905275702 147.13121401819973 -153.27322829196567 73.62739751301201 -168.21256971363482 2.837439315917036 -2.564214583128678 -13.492053243921532 0 0 0 -0.12538989628952607 2.5511247190754993 -0.1724329735605277 -1.0179973214296976 36.37122208635505 -1.2142813236074972 0 0 0 -68.00184790712987 -1.222927126464122 10.454267199216444 -2.316668802061548 -3.8734070600409427 -0.03461876757004857 -6.990523973001683 -11.875436356622679 0.575918620389152 -12.756509425479917 -3.074485121113737 58.21233370895414 0 0 0 0 0 0 0 0 0 0 0 0 0 0 0 0 0 0 0 0 0 0 0 0 0 0 0 0 0 0 0 0 0 0 0 0 0 0 0 0 0 0 0 0 0 0 -41.77020588956768 0 0 -27.11538523337749 0 0 0 0 0 0 0 0 0 0 57.421507999343916 -3.237143497653519 -7.153687487363785 23.109237225227723 -3.2409411732242854 -2.2339342764907424 7.151878604228597 -11.691286456208157 -3.5326069043149935 4.006525652336413 -1.4828778401494038 -61.953869547946134 0 0 0 0 0 0 0 0 0 0 0 0 0 0 0 0 0 0 0 0 0 0 0 0 0 0 0 0 0 0 0 0 0 0 0 0 0 0 0 0 0 0 0 0 0
